<svg xmlns="http://www.w3.org/2000/svg" version="1.0" viewBox="0 0 1280 688" fill="#ffffff" width="32" height="32">
    <metadata>Created by potrace 1.15, written by Peter Selinger 2001-2017</metadata>
    <path d="M5855 6853 c-42 -29 -52 -31 -309 -51 -91 -7 -99 -10 -118 -35 -23 -32 -38 -35 -38 -8 0 27 -33 35 -69 17 -25 -13 -39 -14 -82 -5 -76 17 -190 3 -235 -27 -70 -48 -177 -77 -323 -89 l-90 -7 -3 -42 -3 -41 -53 3 c-52 4 -52 4 -68 -34 l-16 -39 -19 24 c-26 31 -63 22 -78 -19 -10 -30 -73 -69 -113 -70 -32 0 -157 -52 -180 -74 -13 -12 -69 -53 -125 -90 -65 -43 -103 -75 -103 -86 0 -23 -15 -34 -67 -49 -23 -6 -55 -23 -71 -36 -16 -14 -51 -34 -77 -45 -26 -11 -63 -34 -83 -50 -20 -17 -43 -30 -52 -30 -8 0 -36 -15 -62 -33 -25 -18 -64 -41 -87 -51 -22 -11 -43 -26 -46 -35 -3 -9 -18 -23 -34 -33 -16 -9 -37 -29 -47 -45 -31 -50 -55 -71 -111 -98 -32 -16 -58 -36 -63 -50 -10 -26 -85 -83 -152 -116 -39 -18 -48 -28 -50 -53 -2 -23 -9 -31 -32 -37 -16 -5 -43 -21 -60 -37 -17 -15 -57 -45 -88 -65 -38 -24 -64 -50 -78 -77 -23 -45 -38 -55 -98 -63 -26 -3 -63 -19 -95 -41 -29 -20 -60 -36 -70 -36 -13 0 -17 -9 -17 -43 0 -56 -14 -70 -48 -50 -23 13 -36 14 -85 4 -90 -19 -144 -80 -105 -119 6 -6 9 -15 5 -18 -3 -4 -62 -10 -129 -13 -68 -4 -128 -10 -134 -14 -7 -4 -15 -23 -18 -42 -4 -19 -11 -35 -15 -35 -5 0 -29 -19 -55 -41 -30 -26 -67 -47 -103 -58 -71 -21 -83 -38 -60 -87 10 -20 15 -39 12 -42 -3 -3 -75 -9 -161 -12 -96 -4 -159 -11 -166 -18 -9 -9 -9 -12 0 -12 7 0 12 -11 12 -23 0 -29 -34 -41 -187 -63 -59 -9 -114 -21 -121 -27 -8 -6 -22 -27 -33 -46 -43 -82 -96 -121 -162 -121 -46 0 -53 -4 -96 -46 l-46 -47 -45 13 c-25 7 -62 15 -83 18 -32 4 -37 1 -37 -16 0 -13 16 -31 43 -49 56 -38 55 -57 -5 -61 -34 -2 -60 4 -97 22 -54 28 -85 33 -79 14 5 -13 21 -23 63 -39 17 -7 25 -13 17 -16 -10 -4 -9 -9 4 -24 24 -26 10 -24 -34 6 -32 22 -38 23 -48 10 -6 -8 -18 -15 -27 -15 -19 0 -79 -71 -73 -87 3 -6 -2 -17 -10 -23 -8 -7 -14 -9 -14 -4 0 5 -6 2 -13 -7 -7 -9 -34 -19 -61 -22 -67 -9 -82 -31 -46 -67 28 -28 25 -38 -12 -42 -27 -2 -34 -8 -36 -30 -3 -21 3 -30 25 -41 31 -16 148 -47 179 -47 10 0 28 -7 38 -15 11 -8 30 -15 43 -15 13 0 23 -4 23 -10 0 -5 16 -10 36 -10 42 0 84 -39 84 -78 0 -25 41 -72 63 -72 15 0 29 -23 31 -49 1 -8 20 -24 43 -35 23 -12 45 -29 48 -38 4 -11 17 -18 33 -18 l27 -1 -27 -15 c-32 -17 -34 -24 -14 -62 25 -48 71 -83 115 -89 24 -3 41 -11 41 -19 0 -7 7 -20 16 -29 14 -14 37 -16 138 -14 l121 3 18 -50 c11 -32 82 -136 190 -280 256 -342 413 -492 596 -569 62 -26 66 -26 99 -11 18 9 37 14 41 11 5 -2 11 -25 13 -50 8 -66 29 -85 95 -85 42 0 53 -3 53 -16 0 -42 177 -169 327 -234 296 -128 411 -196 436 -258 8 -20 29 -51 45 -69 20 -20 29 -38 26 -51 -4 -13 3 -24 21 -36 23 -15 26 -23 24 -62 -4 -59 8 -70 56 -50 79 33 134 11 169 -67 22 -51 56 -92 56 -68 0 6 13 11 30 11 24 0 35 -8 55 -40 24 -38 88 -90 111 -90 7 0 14 -7 18 -15 3 -8 12 -15 19 -15 8 0 19 -11 25 -25 13 -29 38 -32 70 -9 31 22 65 15 67 -14 1 -13 13 -35 27 -49 25 -24 27 -24 51 -8 17 10 27 13 32 6 8 -15 -3 -31 -21 -31 -24 0 -12 -33 16 -47 14 -7 43 -13 66 -13 51 0 130 -27 248 -84 50 -24 110 -47 133 -50 23 -3 79 -22 124 -42 70 -31 87 -35 130 -29 31 4 49 3 49 -3 0 -6 9 -13 19 -17 10 -3 48 -24 83 -47 34 -23 98 -56 140 -74 68 -28 92 -32 210 -39 187 -10 289 -29 378 -71 62 -29 92 -37 177 -44 57 -5 112 -14 122 -20 11 -5 79 -14 153 -20 156 -11 553 -81 619 -110 55 -23 430 -108 515 -117 51 -5 79 0 165 25 57 17 148 38 202 47 55 8 107 20 118 25 10 6 47 12 82 15 36 3 84 12 108 21 37 14 122 18 529 24 362 6 510 12 585 24 l100 16 45 50 c36 40 51 50 77 50 74 0 173 52 173 91 0 14 14 18 82 25 l82 9 12 40 c7 28 17 41 32 43 27 4 39 20 44 56 4 35 24 45 33 16 4 -13 -1 -33 -14 -54 -12 -18 -21 -38 -21 -45 0 -22 46 -10 94 24 28 19 67 40 88 45 20 6 43 16 50 23 7 7 36 18 63 25 28 7 61 22 75 33 14 11 41 26 60 35 55 23 64 30 76 52 6 12 18 30 27 40 22 24 21 28 -5 37 -37 12 108 27 149 16 40 -11 60 -6 74 20 6 12 21 19 38 19 15 0 48 13 72 30 24 16 56 30 70 30 14 0 41 10 60 23 31 20 43 43 75 132 6 18 8 18 17 -7 6 -16 14 -28 19 -28 4 0 25 16 47 35 21 19 54 41 72 49 45 19 88 65 104 112 12 34 18 40 59 49 36 8 51 18 71 47 14 20 22 43 19 52 -4 10 5 20 28 32 18 9 44 25 57 35 14 11 40 19 63 19 28 0 46 7 63 25 14 13 25 29 25 35 0 6 15 19 33 30 27 17 34 30 47 82 14 57 18 65 53 81 28 13 37 23 37 42 0 20 5 25 25 25 19 0 29 10 45 40 13 26 27 40 40 40 13 0 20 7 20 19 0 22 15 35 55 48 17 5 34 18 39 29 10 21 49 44 77 44 25 0 79 66 79 96 0 26 29 60 85 100 35 25 30 39 -9 25 -17 -7 -26 -7 -26 -1 0 19 5 25 19 22 8 -2 23 7 35 20 12 13 17 18 12 11 -11 -17 -1 -27 19 -20 8 4 15 18 15 31 0 28 32 51 57 42 11 -4 13 -2 9 9 -3 9 2 20 14 27 13 9 17 19 13 39 -4 23 0 28 34 42 45 18 58 31 67 69 7 32 78 68 133 68 47 0 93 45 93 92 0 33 1 33 38 30 48 -5 89 26 98 73 5 27 16 40 50 60 52 30 67 55 55 87 -13 36 -2 96 19 103 40 13 70 46 70 78 l0 32 20 -25 c17 -21 21 -23 30 -10 5 8 10 20 10 26 0 7 11 9 25 6 32 -6 32 6 3 94 -21 65 -21 67 -3 80 10 8 28 14 40 14 24 0 78 73 73 99 -2 8 -18 26 -37 38 l-34 23 44 18 43 19 -44 44 c-59 59 -114 77 -179 60 -48 -12 -94 -7 -118 12 -17 13 -16 27 1 27 22 0 46 29 46 55 0 19 -10 29 -42 43 -24 11 -58 32 -77 46 -19 14 -43 26 -54 26 -23 0 -52 15 -98 52 -20 16 -53 31 -75 34 -21 3 -56 15 -77 26 -22 12 -47 18 -60 14 -29 -7 -77 14 -77 35 0 8 -7 24 -15 35 -8 10 -15 27 -15 36 0 10 -18 30 -40 44 -22 15 -40 31 -40 35 0 14 -71 89 -84 89 -6 0 -31 16 -55 35 -24 19 -51 35 -61 35 -9 0 -25 9 -35 20 -12 13 -31 20 -57 20 -36 0 -40 3 -57 44 -20 45 -71 86 -109 86 -11 0 -34 11 -50 25 -39 33 -122 35 -167 5 -35 -23 -87 -26 -104 -6 -6 7 -11 41 -10 75 2 81 -14 101 -66 82 -28 -10 -39 -10 -50 -1 -20 16 -38 76 -30 100 6 18 2 20 -32 20 l-38 0 0 44 c0 34 -6 51 -26 73 -14 15 -29 36 -32 46 -4 9 -23 27 -43 39 -25 15 -34 26 -31 39 6 23 -8 35 -53 44 -25 5 -55 28 -103 76 -37 38 -74 69 -83 69 -11 0 -14 7 -9 33 5 28 2 34 -22 49 -52 31 -156 126 -172 156 -18 33 -153 162 -170 162 -6 0 -21 21 -34 48 -15 32 -34 53 -60 67 -21 12 -46 37 -58 60 -21 37 -101 113 -169 160 -18 12 -34 35 -40 57 -11 37 -28 61 -107 152 -32 35 -43 57 -43 80 0 25 -6 35 -24 44 -17 8 -26 22 -31 52 -5 31 -13 44 -32 51 -32 12 -130 12 -138 -1 -9 -15 -54 -12 -85 7 -34 20 -50 51 -43 86 5 23 1 27 -38 36 -24 6 -71 19 -104 29 -64 18 -236 24 -288 9 -28 -8 -29 -7 -22 23 6 29 6 30 -33 30 -40 0 -69 -20 -57 -40 12 -19 -25 -22 -60 -6 -31 15 -34 21 -37 63 -4 63 -24 75 -79 44 -34 -20 -50 -22 -94 -17 -79 9 -81 11 -77 57 3 23 -1 46 -8 52 -11 12 -18 6 -53 -47 -12 -18 -14 -18 -55 3 -33 17 -47 19 -62 11 -16 -8 -26 -6 -49 11 l-29 21 -81 -36 c-44 -20 -97 -38 -117 -40 -21 -2 -41 -11 -46 -20 -10 -18 -59 -21 -89 -5 -25 13 -56 -10 -61 -45 -2 -15 -9 -20 -23 -18 -85 15 -97 14 -120 -8 -26 -24 -45 -88 -45 -149 0 -30 -5 -43 -20 -51 -12 -6 -26 -33 -36 -68 -9 -31 -20 -61 -24 -65 -4 -4 -42 5 -86 20 -71 24 -93 27 -222 28 l-144 2 -1 73 -2 72 -85 2 -85 1 -15 62 c-17 69 -41 100 -104 134 -51 26 -73 21 -88 -22 l-10 -30 -18 29 c-10 16 -34 42 -54 57 -20 15 -36 33 -36 40 0 13 -43 25 -86 25 -15 0 -24 -6 -24 -15 0 -24 -38 -18 -62 10 -13 15 -32 25 -47 25 -15 0 -43 9 -63 19 -25 14 -67 22 -137 27 -101 7 -101 7 -101 33 0 56 -36 65 -95 24z m1186 -643 c17 -16 28 -34 24 -40 -10 -16 -19 -12 -30 13 -7 14 -20 23 -40 25 -43 4 -57 10 -50 22 13 21 66 10 96 -20z m-1732 -1389 c13 -18 21 -45 21 -69 0 -35 3 -40 31 -48 40 -12 58 -37 43 -61 -25 -40 -87 -19 -122 41 -14 24 -17 46 -14 99 2 37 8 67 12 67 5 0 18 -13 29 -29z m5466 19 c-3 -5 -17 -10 -31 -10 -13 0 -24 5 -24 10 0 6 14 10 31 10 17 0 28 -4 24 -10z m-3430 -44 c27 -12 35 -21 35 -41 0 -21 4 -25 23 -20 17 4 31 -6 65 -45 27 -31 38 -50 29 -50 -8 0 -20 7 -27 15 -17 20 -26 19 -51 -6 -16 -16 -20 -31 -18 -67 3 -54 9 -52 -106 -33 -38 7 -81 19 -94 28 -18 11 -37 14 -75 9 -42 -5 -54 -2 -72 15 l-22 21 -7 -24 c-4 -12 -16 -34 -26 -47 -11 -13 -19 -36 -19 -50 0 -15 -5 -32 -11 -38 -15 -15 -3 -33 21 -33 11 0 40 -5 64 -12 52 -14 70 -4 80 42 5 28 8 30 54 30 57 0 132 -35 147 -68 6 -14 15 -20 24 -17 33 13 101 17 101 7 0 -6 -9 -14 -21 -17 -12 -4 -30 -16 -40 -26 -10 -10 -30 -19 -44 -19 -15 0 -38 -6 -53 -14 -15 -7 -45 -16 -66 -19 -21 -4 -49 -16 -61 -27 -15 -14 -25 -18 -30 -11 -3 6 -13 11 -22 11 -9 0 -26 11 -39 25 -21 23 -31 25 -104 25 -76 0 -80 -1 -80 -22 0 -13 -3 -40 -6 -60 l-7 -38 54 0 c61 0 85 -11 76 -34 -8 -20 -51 -21 -67 -1 -20 24 -48 18 -65 -15 -30 -59 -24 -64 105 -76 99 -9 192 -44 251 -94 l47 -40 12 35 c15 45 22 49 66 30 63 -26 153 -17 176 19 23 34 2 66 -43 66 -35 0 -17 72 30 114 12 11 21 25 21 33 0 9 15 13 49 13 45 0 50 2 61 30 14 33 25 38 34 15 7 -19 56 -19 100 -1 24 10 37 24 46 50 6 20 13 36 15 36 2 0 16 -12 31 -27 25 -25 27 -25 40 -9 15 21 9 42 -19 74 l-20 22 21 0 c11 0 25 -7 30 -16 12 -22 28 -11 51 34 11 21 38 60 61 87 23 28 50 67 61 87 13 25 28 40 47 44 57 12 71 23 82 63 10 38 30 65 30 42 0 -6 7 -11 16 -11 10 0 14 -6 11 -14 -3 -8 -11 -42 -18 -76 -11 -59 -25 -84 -51 -92 -7 -3 -11 -20 -10 -46 l3 -42 -46 6 c-25 4 -45 4 -45 0 0 -36 85 -119 134 -132 14 -3 26 -9 26 -13 0 -4 12 -13 26 -20 14 -6 24 -17 21 -24 -5 -15 -72 -10 -109 8 l-28 13 0 -49 c0 -27 -4 -49 -10 -49 -15 0 -32 -39 -25 -60 9 -28 25 -25 101 15 36 19 75 35 85 35 23 0 61 18 71 34 23 34 2 66 -43 66 -28 0 -23 17 11 35 63 32 148 5 162 -53 11 -41 62 -76 90 -61 17 9 17 11 2 34 -16 25 -16 25 18 25 18 0 44 7 57 16 20 15 23 22 17 59 -4 34 -2 44 11 49 19 8 54 -21 47 -38 -3 -8 8 -17 27 -22 41 -12 46 -27 14 -42 -14 -6 -30 -23 -36 -36 -6 -13 -21 -29 -33 -34 -17 -9 -10 -11 37 -11 31 -1 57 -5 57 -10 0 -11 -62 -41 -86 -41 -10 0 -32 -16 -50 -35 -17 -19 -41 -35 -52 -35 -11 0 -25 -7 -33 -16 -10 -13 -10 -19 0 -37 11 -17 11 -22 -3 -32 -9 -7 -16 -15 -16 -19 0 -13 23 -5 52 19 16 14 36 25 43 25 7 0 25 14 39 32 l25 32 39 -22 c46 -26 122 -31 122 -8 0 8 -16 20 -36 26 -39 13 -41 33 -3 38 13 2 29 8 36 14 7 5 42 14 79 18 50 6 75 15 103 38 20 16 52 36 71 46 51 23 71 62 60 112 -14 56 -12 60 11 30 29 -37 71 -35 99 4 12 17 27 30 35 30 7 0 15 9 18 20 6 25 34 37 50 21 9 -9 7 -16 -11 -29 -34 -26 -62 -73 -62 -105 0 -25 -47 -87 -135 -178 -29 -30 -30 -39 -12 -87 9 -27 9 -36 0 -39 -7 -2 -17 -20 -23 -39 -6 -19 -20 -39 -31 -44 -28 -15 -23 -28 13 -38 39 -10 48 -36 18 -52 -16 -8 -24 -8 -35 3 -8 8 -30 18 -49 21 -33 6 -61 26 -37 26 6 0 11 5 11 10 0 21 -57 10 -85 -16 -16 -15 -45 -33 -64 -42 l-36 -15 50 -23 c28 -13 69 -24 91 -24 24 0 47 -6 54 -15 10 -12 4 -22 -36 -59 -32 -30 -58 -45 -76 -46 -15 0 -39 -5 -53 -12 -22 -10 -29 -8 -50 12 -20 19 -40 25 -90 28 -35 2 -76 1 -90 -2 -27 -7 -35 -26 -10 -26 9 0 20 -11 25 -24 7 -20 17 -24 64 -28 39 -3 63 -11 79 -26 16 -15 27 -18 37 -12 19 13 80 13 80 1 0 -6 -4 -13 -10 -16 -5 -3 -10 -19 -10 -35 0 -61 89 -102 260 -121 127 -13 140 -17 147 -37 17 -47 30 -52 154 -52 130 0 165 -8 178 -43 5 -12 16 -29 25 -36 21 -18 11 -31 -22 -31 -36 0 -49 10 -53 40 -4 24 -8 25 -75 28 -103 4 -171 -28 -88 -41 19 -3 57 -19 82 -34 l47 -28 -70 -3 c-46 -2 -75 -8 -87 -19 -17 -15 -17 -18 -2 -41 16 -25 16 -26 -25 -59 -22 -19 -41 -43 -41 -54 0 -12 -15 -26 -42 -40 -24 -12 -62 -35 -85 -50 -23 -16 -45 -29 -50 -29 -4 0 -28 -16 -52 -35 -24 -19 -50 -35 -57 -35 -7 0 -14 -12 -16 -27 -3 -27 -5 -28 -87 -36 -110 -10 -284 -59 -321 -92 -18 -15 -76 -45 -88 -45 -5 0 -19 9 -32 20 -35 30 -106 26 -197 -10 -41 -16 -85 -30 -98 -30 -46 0 -125 -22 -125 -34 0 -7 -12 -14 -27 -14 -16 -1 -95 -9 -176 -18 l-149 -18 -81 27 c-45 15 -100 31 -122 36 -22 6 -65 19 -95 30 -77 28 -212 44 -366 45 -116 1 -134 -1 -153 -18 -21 -19 -22 -19 -44 1 -32 30 -87 44 -164 44 -37 0 -102 1 -143 2 -67 2 -79 -1 -115 -25 -49 -34 -53 -34 -48 -4 4 19 -1 28 -25 40 -17 9 -34 25 -37 37 -4 12 -26 29 -51 40 -54 24 -144 37 -144 20 0 -19 -41 -12 -130 24 -68 27 -89 40 -107 68 -23 36 -82 67 -131 67 -15 0 -40 7 -55 15 -26 14 -28 13 -37 -11 -6 -14 -10 -34 -10 -44 0 -21 -32 -46 -65 -52 -17 -2 -20 3 -20 31 0 26 -7 38 -30 55 -17 11 -41 31 -54 44 -21 22 -27 23 -119 17 -53 -4 -199 -8 -323 -8 -176 -2 -232 1 -252 12 -21 11 -35 11 -71 2 -68 -17 -97 -14 -103 9 -6 24 -51 28 -59 5 -9 -23 -22 -18 -55 20 -17 19 -34 35 -39 35 -4 0 -25 -14 -46 -31 -36 -28 -44 -31 -95 -26 -57 5 -78 -1 -116 -35 -29 -27 -43 -15 -43 35 0 55 -20 83 -66 90 -20 3 -44 13 -54 22 -16 14 -33 15 -147 6 -150 -12 -157 -14 -171 -46 -16 -35 -54 -41 -105 -18 -23 11 -76 32 -117 46 -41 14 -102 37 -135 51 -38 16 -79 26 -112 26 -62 0 -83 7 -83 27 0 12 8 14 35 9 27 -5 35 -4 35 8 0 22 -32 36 -86 36 -37 0 -53 -6 -81 -30 -31 -28 -53 -32 -53 -11 0 5 11 25 25 45 14 21 22 42 19 48 -10 16 -163 4 -201 -16 -31 -16 -34 -16 -62 0 -27 16 -32 16 -48 3 -30 -25 -72 -39 -134 -46 -32 -3 -64 -12 -70 -19 -6 -8 -21 -14 -32 -14 -32 0 -208 -90 -233 -119 -23 -27 -58 -31 -152 -16 -32 6 -63 1 -126 -19 -93 -29 -126 -32 -144 -14 -20 20 -13 35 20 42 18 3 45 18 60 33 23 22 38 27 81 28 79 2 235 40 269 65 17 12 48 25 70 28 l40 5 -29 24 c-92 77 -190 134 -219 127 -18 -5 -26 1 -39 25 -8 17 -24 31 -33 31 -10 0 -47 20 -82 45 -35 24 -84 52 -109 61 -25 10 -52 23 -60 30 -28 26 -2 26 63 0 35 -14 73 -26 83 -26 11 0 23 -4 29 -10 17 -17 219 -78 280 -85 44 -5 70 -3 98 9 21 9 42 16 46 16 4 0 10 -19 13 -42 9 -69 52 -87 226 -95 101 -5 123 -3 188 18 60 19 78 21 94 11 31 -19 57 -15 61 11 2 16 11 23 33 27 17 3 50 20 73 39 36 30 40 37 29 49 -8 7 -44 17 -80 22 -43 5 -76 16 -94 29 -47 36 -132 91 -141 91 -5 0 -21 -9 -36 -21 -32 -25 -42 -20 -49 29 -4 25 -18 48 -39 68 -51 47 -114 93 -160 118 -23 12 -43 27 -46 34 -6 19 39 14 83 -8 22 -11 52 -20 67 -20 15 0 29 -4 33 -9 3 -5 27 -17 55 -26 36 -12 50 -22 52 -38 2 -17 12 -23 43 -27 22 -3 52 -13 65 -23 13 -9 40 -17 60 -17 19 0 42 -5 50 -10 13 -9 13 -11 0 -20 -8 -5 -25 -10 -37 -10 -12 0 -25 -5 -28 -10 -7 -12 53 -40 86 -40 11 0 67 -19 122 -42 164 -67 229 -58 361 49 89 72 102 93 90 146 -6 24 -7 52 -4 63 12 31 0 44 -39 44 -38 0 -61 14 -61 36 0 19 35 26 63 13 22 -10 30 -8 53 10 15 11 33 21 41 21 8 0 13 6 11 13 -3 7 -28 13 -69 15 -35 1 -70 5 -78 7 -23 9 5 32 47 39 85 15 101 25 107 64 13 76 15 79 105 86 46 4 89 10 96 13 18 7 18 32 -1 76 -18 42 -20 137 -4 137 6 0 13 -8 16 -17 7 -25 69 -63 102 -63 30 0 199 -78 218 -101 6 -8 21 -40 33 -71 12 -32 24 -60 28 -62 4 -2 25 -6 47 -7 31 -3 40 0 43 13 2 12 -5 19 -22 24 -31 7 -32 14 -6 46 l19 25 -24 11 c-35 16 -85 122 -57 122 4 0 40 -7 79 -15 41 -9 90 -13 112 -9 62 10 141 -18 183 -66 20 -22 41 -40 47 -40 6 0 11 -4 11 -10 0 -5 -10 -10 -22 -10 -34 0 -156 -62 -163 -83 -4 -11 -13 -16 -21 -13 -22 8 -2 -23 41 -64 l36 -35 127 0 c111 1 135 4 192 26 65 25 65 25 62 61 -3 32 0 37 29 47 18 6 54 11 80 11 54 0 64 -17 33 -51 -13 -14 -21 -16 -39 -7 -13 6 -31 8 -39 5 -21 -8 -21 -43 0 -51 30 -12 3 -25 -66 -32 -77 -7 -90 -19 -32 -31 73 -14 116 -9 191 26 40 18 96 36 124 40 48 6 52 8 60 41 5 19 16 52 25 73 14 35 14 40 -2 68 -11 18 -21 65 -26 118 -9 93 -19 124 -47 139 -24 14 37 26 92 17 l44 -6 -25 -36 c-27 -40 -30 -56 -11 -75 18 -19 47 -111 47 -149 0 -40 5 -48 43 -72 17 -11 27 -26 27 -41 0 -13 6 -29 14 -35 21 -17 203 -26 262 -12 27 6 113 18 192 26 139 14 144 14 170 -5 33 -24 253 -55 322 -46 56 8 75 8 178 0 128 -10 155 4 112 59 -11 14 -20 37 -20 52 0 24 -3 26 -32 23 -27 -2 -33 -7 -33 -27 0 -28 -25 -47 -49 -38 -14 5 -16 14 -11 37 6 26 2 32 -26 49 -18 11 -46 23 -62 27 -32 7 -47 32 -26 45 30 19 69 9 105 -26 23 -24 44 -35 63 -35 16 0 43 -3 61 -7 30 -6 33 -4 28 15 -4 14 2 32 15 49 25 31 60 105 71 146 3 15 11 27 18 27 6 0 3 9 -7 20 -17 19 -17 21 -2 38 21 23 22 58 1 70 -13 7 -9 13 20 36 20 15 36 36 36 47 0 12 10 23 26 29 42 16 45 12 22 -35 -12 -24 -19 -47 -16 -51 4 -3 41 -10 82 -15 41 -4 84 -13 95 -18 35 -19 161 -11 161 9 0 5 -10 10 -22 12 -34 5 -33 32 1 71 31 34 31 47 2 47 -24 0 -44 16 -37 29 10 15 30 14 71 -3z m-137 -38 c-3 -30 -6 -33 -40 -36 -29 -2 -38 0 -38 13 0 8 11 21 25 27 14 6 25 15 25 20 0 4 7 8 16 8 11 0 14 -8 12 -32z m-974 -50 c3 -13 6 -41 6 -63 0 -34 5 -43 30 -57 24 -14 30 -24 30 -51 0 -18 7 -42 15 -53 19 -25 19 -34 -3 -34 -10 0 -28 -7 -40 -16 -22 -15 -22 -17 -6 -35 9 -10 13 -19 7 -19 -6 0 -20 -23 -32 -52 -21 -51 -35 -55 -43 -13 -4 23 -14 23 -141 5 -83 -12 -107 -6 -107 30 0 24 41 39 134 51 100 12 130 23 145 55 17 39 13 69 -14 98 -27 29 -33 62 -13 68 8 3 4 15 -11 37 -22 31 -22 33 -6 52 24 25 41 24 49 -3z m-244 -7 c0 -34 67 -79 144 -96 52 -11 11 -28 -80 -33 -79 -4 -86 -6 -95 -29 -5 -13 -24 -30 -44 -39 -51 -21 -147 -29 -174 -14 -21 11 -22 13 -8 28 13 13 21 13 42 4 38 -17 42 -16 69 27 14 22 36 41 50 45 17 4 28 16 32 32 7 29 -7 44 -43 44 -25 0 -41 18 -21 24 102 29 128 30 128 7z m762 -65 c42 -8 51 -17 42 -40 -8 -22 -31 -20 -61 4 -16 12 -41 20 -64 20 -46 0 -49 9 -12 32 23 14 30 14 43 4 8 -8 32 -16 52 -20z m-922 11 c0 -17 -20 -37 -37 -37 -19 0 -16 27 5 39 23 14 32 13 32 -2z m3711 -49 c-20 -33 -51 -44 -58 -20 -3 7 4 12 16 12 11 0 26 9 33 20 7 11 17 20 21 20 5 0 0 -15 -12 -32z m-4769 -53 c5 -24 22 -54 43 -75 39 -40 42 -52 19 -71 -14 -11 -20 -9 -45 19 -16 18 -29 41 -29 52 0 10 -12 27 -26 37 -97 68 -101 86 -21 81 51 -3 51 -3 59 -43z m828 -32 c0 -37 -6 -40 -32 -16 -22 20 -23 31 -1 55 20 23 33 8 33 -39z m2055 37 c9 -7 15 -29 15 -51 0 -21 5 -41 10 -44 15 -9 12 -68 -3 -90 -24 -32 -39 -9 -32 50 8 64 -9 77 -60 45 -48 -30 -62 -2 -24 51 19 28 20 29 2 35 -57 18 -55 24 10 20 37 -2 74 -9 82 -16z m150 0 c0 -7 -6 -15 -12 -17 -8 -3 -13 4 -13 17 0 13 5 20 13 18 6 -3 12 -11 12 -18z m-694 -25 c-1 -15 -24 -12 -29 3 -3 9 2 13 12 10 10 -1 17 -7 17 -13z m-1162 -99 c15 -18 2 -27 -27 -19 -22 5 -27 14 -15 26 11 11 30 8 42 -7z m2757 3 c10 -16 -29 -51 -49 -43 -17 6 -23 35 -10 47 10 11 51 8 59 -4z m-2868 -11 c-3 -7 -13 -13 -23 -13 -10 0 -20 6 -22 13 -3 7 5 12 22 12 17 0 25 -5 23 -12z m1662 -103 c0 -46 -62 -74 -90 -40 -15 19 -7 31 38 54 42 22 52 19 52 -14z m-2602 -63 c4 -38 -14 -43 -28 -6 -14 36 -12 46 8 42 11 -2 18 -14 20 -36z m1448 3 c7 -18 -13 -45 -33 -45 -19 0 -28 27 -13 45 16 19 39 19 46 0z m242 -29 c6 -27 -11 -38 -33 -22 -17 12 -17 16 -6 30 17 20 35 16 39 -8z m-1608 -52 c0 -14 -20 -23 -37 -17 -14 5 -17 31 -6 58 5 15 8 15 24 -6 10 -13 19 -29 19 -35z m4595 26 c-5 -8 -11 -8 -17 -2 -6 6 -7 16 -3 22 5 8 11 8 17 2 6 -6 7 -16 3 -22z m-2462 -2 c13 -20 2 -49 -17 -42 -14 5 -28 49 -18 59 9 8 24 1 35 -17z m3212 -59 c0 -21 -4 -24 -39 -24 -50 0 -58 21 -14 40 42 18 53 15 53 -16z m-458 -44 c-20 -18 -40 -25 -68 -25 -53 0 -47 24 7 28 21 2 43 8 49 13 5 5 16 9 25 9 10 -1 6 -8 -13 -25z m271 18 c-10 -2 -26 -2 -35 0 -10 3 -2 5 17 5 19 0 27 -2 18 -5z m-9438 -148 c11 -13 11 -18 0 -28 -10 -10 -12 -9 -7 6 4 11 1 17 -8 17 -7 0 -17 5 -20 10 -10 16 21 11 35 -5z m-440 -17 c0 -21 -13 -35 -39 -43 -18 -5 -22 -4 -16 6 24 42 55 62 55 37z m3102 -19 c38 -19 57 -54 40 -71 -14 -14 -59 12 -107 62 l-40 42 35 -7 c19 -4 52 -16 72 -26z m302 -28 c3 -5 -1 -11 -9 -15 -18 -6 -45 2 -45 15 0 12 47 12 54 0z m6606 -91 c0 -5 -3 -10 -7 -10 -5 0 -35 -22 -68 -50 -110 -90 -121 -99 -148 -111 -30 -14 -35 -40 -12 -59 39 -32 -3 -56 -114 -66 -57 -4 -72 -2 -106 18 -45 26 -59 63 -28 75 10 4 23 12 28 19 6 7 19 14 30 16 12 2 20 11 20 23 0 17 9 21 55 27 68 8 150 38 248 90 74 38 102 46 102 28z m-10122 -46 c17 -17 24 -54 11 -54 -11 0 -39 42 -39 57 0 17 8 16 28 -3z m9283 -69 c35 -19 30 -35 -12 -35 -24 0 -29 4 -29 25 0 29 2 30 41 10z m-6815 -44 c20 -16 21 -20 8 -25 -21 -8 -79 -8 -87 0 -12 12 13 44 34 44 12 0 32 -9 45 -19z m-902 -67 c21 -8 20 -53 -1 -61 -9 -4 -19 -1 -21 5 -2 7 -9 12 -16 12 -21 0 -49 26 -42 38 8 13 54 16 80 6z m7920 -103 c3 -4 -18 -11 -46 -14 -28 -4 -55 -10 -60 -15 -10 -10 -108 18 -108 30 0 11 207 10 214 -1z m-8029 -44 c18 -26 19 -37 2 -37 -16 0 -70 54 -62 62 11 11 45 -4 60 -25z m190 -37 c-28 -12 -47 -12 -40 0 3 6 18 10 33 9 24 0 25 -1 7 -9z m-1170 -20 c3 -5 1 -10 -4 -10 -6 0 -11 5 -11 10 0 6 2 10 4 10 3 0 8 -4 11 -10z m1280 -11 c10 -16 -4 -59 -19 -59 -7 0 -21 9 -32 21 -18 20 -18 21 1 35 22 17 41 18 50 3z m8835 -28 c0 -14 -18 -23 -30 -16 -6 4 -8 11 -5 16 8 12 35 12 35 0z m303 -58 c-3 -26 -15 -47 -36 -64 -29 -25 -30 -29 -19 -54 11 -23 16 -26 40 -19 56 15 77 11 77 -16 l0 -25 -190 1 c-136 0 -197 4 -214 13 l-24 13 27 22 28 21 -21 19 c-32 29 -26 36 29 36 28 0 50 4 50 10 0 5 18 13 40 16 22 4 57 20 77 35 29 24 45 29 89 29 l53 0 -6 -37z m-418 18 c11 -18 -150 -56 -197 -46 -35 8 -44 33 -15 45 29 12 204 13 212 1z m-659 -82 c8 -6 14 -22 14 -35 0 -22 4 -24 44 -24 27 0 61 -9 92 -26 59 -32 160 -42 258 -25 45 8 72 8 85 2 10 -6 63 -13 117 -17 99 -6 99 -7 135 -45 44 -47 76 -56 123 -34 34 16 37 16 77 -7 48 -26 67 -56 28 -43 -13 4 -78 11 -144 15 -136 9 -160 14 -230 47 -41 19 -66 23 -140 23 -56 -1 -99 -6 -114 -14 -20 -11 -28 -11 -50 0 -32 17 -49 17 -90 3 -25 -9 -31 -16 -31 -40 l0 -29 -69 0 c-39 0 -73 5 -76 10 -10 16 14 40 38 40 23 0 57 27 57 45 0 21 -26 25 -166 25 -74 0 -134 4 -134 9 0 11 25 21 55 21 43 0 53 30 23 72 -9 13 -9 20 2 33 16 19 70 15 96 -6z m-202 -45 c23 -9 20 -31 -6 -45 -13 -7 -29 -20 -36 -31 -16 -22 -50 -24 -59 -2 -17 45 50 98 101 78z m1486 -9 c19 -23 2 -35 -51 -35 -53 0 -57 4 -32 32 19 22 66 24 83 3z m97 -57 c38 -36 30 -48 -27 -41 l-50 6 0 -31 c0 -18 -6 -32 -15 -36 -9 -3 -15 -12 -13 -19 2 -8 -11 -26 -28 -40 l-31 -26 -41 21 c-47 22 -48 25 -27 52 8 11 15 28 15 38 0 11 10 20 28 23 71 15 104 28 129 50 34 30 32 30 60 3z m1223 2 c0 -5 -19 -10 -42 -10 -32 0 -39 3 -28 10 20 13 70 13 70 0z m-2952 -32 c15 -15 16 -45 2 -53 -6 -4 -29 -4 -50 0 -33 6 -40 11 -40 30 0 13 6 26 13 28 23 10 63 7 75 -5z m-7087 -41 c-8 -8 -11 -5 -11 9 0 27 14 41 18 19 2 -9 -1 -22 -7 -28z m539 18 c0 -2 -9 -9 -20 -15 -23 -12 -64 -4 -55 11 6 9 75 13 75 4z m366 -4 c-7 -11 -85 -26 -93 -18 -6 6 51 25 80 26 10 1 16 -3 13 -8z m6422 -43 c3 -29 -20 -53 -44 -44 -11 4 -13 13 -8 28 15 52 47 62 52 16z m-7610 -2 c4 -17 0 -18 -33 -13 -45 7 -54 15 -35 28 24 15 64 6 68 -15z m592 4 c0 -12 -28 -25 -36 -17 -9 9 6 27 22 27 8 0 14 -5 14 -10z m1636 -16 c4 -17 2 -29 -7 -34 -19 -13 -29 -2 -29 31 0 37 27 39 36 3z m-2051 -14 c11 -17 -5 -32 -21 -19 -8 6 -14 15 -14 20 0 12 27 11 35 -1z m140 -22 c11 -26 69 -38 88 -19 16 16 90 14 85 -1 -3 -7 -15 -15 -28 -16 -13 -2 -33 -10 -45 -18 -23 -15 -227 -25 -240 -12 -14 14 7 28 41 28 28 0 38 6 52 30 20 36 34 38 47 8z m8135 -23 c7 -9 10 -18 7 -21 -10 -11 -37 5 -37 21 0 19 14 19 30 0z m-8492 -4 c10 -6 7 -10 -13 -15 -31 -8 -54 2 -34 15 18 11 30 11 47 0z m2097 -21 c18 -20 18 -21 -3 -42 -28 -29 -47 -13 -37 31 8 36 15 38 40 11z m1584 -9 c12 -8 9 -12 -13 -22 -23 -11 -29 -10 -36 1 -17 27 17 41 49 21z m5461 -13 c0 -16 -3 -19 -11 -11 -6 6 -8 16 -5 22 11 17 16 13 16 -11z m-8472 -26 c3 -22 -45 -111 -60 -112 -5 0 -8 8 -8 18 0 11 -14 25 -35 35 -27 13 -35 23 -35 43 0 25 1 26 50 19 41 -6 51 -4 56 9 9 23 28 15 32 -12z m1700 -68 c27 -18 20 -34 -14 -34 -14 0 -27 -7 -30 -15 -10 -26 -24 -5 -24 36 0 37 2 40 23 34 12 -4 32 -14 45 -21z m6545 -53 c-7 -28 -33 -34 -95 -22 -83 15 -138 -1 -138 -40 0 -21 -23 -33 -87 -43 -25 -3 -44 -2 -48 4 -10 16 14 40 39 40 13 0 32 11 44 25 12 14 29 25 39 25 9 0 37 12 62 27 25 15 69 32 96 39 47 11 51 10 72 -11 14 -15 20 -30 16 -44z m-7525 -13 c-7 -19 -38 -22 -38 -4 0 10 9 16 21 16 12 0 19 -5 17 -12z m-818 -32 c0 -14 -4 -28 -10 -31 -6 -4 -10 7 -10 24 0 17 5 31 10 31 6 0 10 -11 10 -24z m9350 -16 c0 -11 -4 -20 -10 -20 -5 0 -10 9 -10 20 0 11 5 20 10 20 6 0 10 -9 10 -20z m-7721 -8 c12 -23 2 -72 -17 -79 -18 -7 -52 30 -52 57 0 9 10 22 23 28 31 15 35 14 46 -6z m7771 -13 c0 -18 -18 -9 -23 12 -4 16 -3 18 9 8 8 -6 14 -15 14 -20z m-1460 -5 c19 -18 1 -36 -36 -36 -29 0 -69 37 -58 54 8 13 75 0 94 -18z m-7112 -6 c-3 -7 -11 -13 -18 -13 -7 0 -15 6 -17 13 -3 7 4 12 17 12 13 0 20 -5 18 -12z m-58 -92 c0 -18 -30 -30 -43 -17 -5 5 -6 14 -3 20 10 16 46 13 46 -3z m-819 -62 c3 -16 16 -46 29 -68 23 -38 23 -39 4 -53 -22 -16 -63 -28 -70 -20 -11 11 8 178 19 174 7 -2 14 -17 18 -33z m8664 -123 c37 -18 38 -19 16 -30 -31 -17 -75 -10 -79 13 -3 14 9 33 24 36 0 0 18 -8 39 -19z m-229 -537 c8 -29 -7 -49 -30 -41 -16 6 -22 48 -9 60 14 15 33 6 39 -19z m-3404 -148 c-2 -35 2 -53 14 -67 13 -15 15 -22 6 -31 -7 -7 -12 -22 -12 -33 0 -12 -3 -24 -6 -28 -10 -9 -34 4 -34 19 0 8 -7 14 -16 14 -12 0 -14 7 -10 28 4 17 1 35 -8 47 -13 18 -12 22 6 43 12 12 16 22 10 22 -16 0 -15 27 1 34 6 2 21 4 32 3 17 -2 20 -8 17 -51z m2688 -168 c0 -21 -4 -22 -31 -8 -19 10 -26 40 -12 53 10 11 43 -24 43 -45z m92 0 c19 -32 20 -41 9 -64 -11 -25 -13 -26 -29 -11 -14 15 -15 22 -4 49 10 27 9 35 -6 51 -11 13 -12 18 -4 16 7 -3 23 -21 34 -41z m113 11 c0 -8 -10 -15 -22 -17 -25 -4 -30 7 -11 26 15 15 33 10 33 -9z m-2925 -32 c0 -7 -16 -28 -35 -47 -36 -35 -47 -80 -20 -80 8 0 15 8 15 18 0 23 35 56 49 47 16 -9 13 -51 -4 -65 -8 -7 -15 -24 -15 -39 0 -20 -2 -23 -10 -11 -8 13 -13 13 -37 0 -16 -9 -29 -26 -31 -38 -3 -19 1 -22 27 -22 31 0 49 -14 31 -25 -5 -3 -10 -40 -10 -81 0 -56 -3 -74 -14 -74 -19 0 -37 25 -45 63 -7 32 -7 32 -64 29 -48 -2 -58 1 -67 19 -15 27 -6 35 25 21 49 -23 63 -3 71 98 9 120 12 129 47 144 30 13 30 14 8 15 -46 2 8 31 72 40 4 1 7 -5 7 -12z m2880 -88 c0 -5 -9 -9 -20 -9 -19 0 -26 11 -14 23 8 8 34 -3 34 -14z m-7422 -55 c12 -8 22 -19 22 -24 0 -19 -50 -42 -75 -36 -21 5 -25 12 -25 41 0 32 3 35 28 35 15 0 38 -7 50 -16z m6842 -35 c0 -10 -34 -12 -43 -2 -4 3 -2 12 4 20 9 10 15 10 25 2 8 -6 14 -15 14 -20z m270 -34 c0 -14 -4 -25 -10 -25 -5 0 -10 11 -10 25 0 14 5 25 10 25 6 0 10 -11 10 -25z m273 -30 c1 -5 -10 -11 -25 -13 -16 -2 -28 1 -28 7 0 20 49 26 53 6z m110 -7 c13 -20 2 -48 -18 -48 -8 0 -21 12 -27 26 -10 21 -9 27 3 35 17 11 30 7 42 -13z m-396 -114 c8 -20 -10 -37 -35 -32 -16 2 -18 7 -11 26 10 25 37 29 46 6z m293 -3 c0 -31 -23 -43 -59 -30 -35 12 -37 36 -3 31 11 -2 23 2 27 8 11 17 35 11 35 -9z m-3194 -24 c1 -12 5 -39 9 -59 5 -25 4 -38 -3 -38 -18 0 -32 35 -32 78 0 55 21 71 26 19z m2054 13 c0 -20 -25 -38 -37 -26 -5 5 24 46 34 46 1 0 3 -9 3 -20z m-1900 -27 c0 -15 10 -37 21 -49 17 -18 20 -30 15 -58 -7 -39 -22 -54 -38 -38 -13 13 -33 135 -25 155 10 26 27 20 27 -10z m2830 -57 c0 -13 -3 -31 -6 -40 -11 -29 -20 -16 -16 24 4 43 22 56 22 16z m-1150 -246 c4 -29 0 -40 -15 -40 -15 0 -22 50 -8 64 8 8 21 -4 23 -24z m131 -55 c-1 -15 -24 -12 -29 3 -3 9 2 13 12 10 10 -1 17 -7 17 -13z" transform="matrix(.1 0 0 -.1 0 688)"/>
</svg>